<?xml version="1.0" encoding="utf-8"?>
<svg width="1521.6079px" height="276px" viewBox="0 0 1521.6079 276" version="1.1" xmlns:xlink="http://www.w3.org/1999/xlink" xmlns="http://www.w3.org/2000/svg">
  <defs>
    <path d="M276 138C276 61.7847 337.785 0 414 0C490.215 0 552 61.7847 552 138C552 214.215 490.215 276 414 276C337.785 276 276 214.215 276 138Z" id="path_1" />
    <path d="M137.34 138C137.34 61.7847 199.124 0 275.34 0C351.555 0 413.34 61.7847 413.34 138C413.34 214.215 351.555 276 275.34 276C199.124 276 137.34 214.215 137.34 138Z" id="path_2" />
    <path d="M0 138C0 61.7847 61.7847 0 138 0C214.215 0 276 61.7847 276 138C276 214.215 214.215 276 138 276C61.7847 276 0 214.215 0 138Z" id="path_3" />
    <clipPath id="clip_1">
      <use xlink:href="#path_1" />
    </clipPath>
    <clipPath id="clip_2">
      <use xlink:href="#path_2" />
    </clipPath>
    <clipPath id="clip_3">
      <use xlink:href="#path_3" />
    </clipPath>
  </defs>
  <g id="Group-2">
    <g id="Group">
      <g id="Oval-Copy-2">
        <use stroke="none" fill="#FFFFFF" xlink:href="#path_1" fill-rule="evenodd" />
        <g clip-path="url(#clip_1)">
          <use xlink:href="#path_1" fill="none" stroke="#0E2954" stroke-width="14" />
        </g>
      </g>
      <g id="Oval-Copy">
        <use stroke="none" fill="#0E2954" xlink:href="#path_2" fill-rule="evenodd" />
        <g clip-path="url(#clip_2)">
          <use xlink:href="#path_2" fill="none" stroke="#0E2954" stroke-width="14" />
        </g>
      </g>
      <g id="Oval">
        <use stroke="none" fill="#FFFFFF" xlink:href="#path_3" fill-rule="evenodd" />
        <g clip-path="url(#clip_3)">
          <use xlink:href="#path_3" fill="none" stroke="#0E2954" stroke-width="14" />
        </g>
      </g>
    </g>
    <path d="M615.642 210.656L615.642 65.2017L646.395 65.2017L646.395 125.216L708.824 125.216L708.824 65.2017L739.506 65.2017L739.506 210.656L708.824 210.656L708.824 150.571L646.395 150.571L646.395 210.656L615.642 210.656ZM813.582 212.787C802.55 212.787 793.021 210.431 784.996 205.72C776.97 201.009 770.779 194.428 766.423 185.976C762.067 177.524 759.889 167.711 759.889 156.537C759.889 145.268 762.067 135.408 766.423 126.956C770.779 118.504 776.97 111.923 784.996 107.212C793.021 102.5 802.55 100.145 813.582 100.145C824.615 100.145 834.143 102.5 842.169 107.212C850.195 111.923 856.385 118.504 860.742 126.956C865.098 135.408 867.276 145.268 867.276 156.537C867.276 167.711 865.098 177.524 860.742 185.976C856.385 194.428 850.195 201.009 842.169 205.72C834.143 210.431 824.615 212.787 813.582 212.787L813.582 212.787ZM813.724 189.349C821.206 189.349 826.875 186.224 830.734 179.974C834.593 173.724 836.523 165.841 836.523 156.324C836.523 146.807 834.593 138.911 830.734 132.638C826.875 126.364 821.206 123.227 813.724 123.227C806.101 123.227 800.349 126.364 796.466 132.638C792.583 138.911 790.642 146.807 790.642 156.324C790.642 165.841 792.583 173.724 796.466 179.974C800.349 186.224 806.101 189.349 813.724 189.349L813.724 189.349ZM977.787 132.673L950.088 134.378C949.331 130.874 947.413 127.867 944.335 125.358C941.258 122.849 937.091 121.594 931.835 121.594C927.148 121.594 923.182 122.576 919.939 124.541C916.696 126.506 915.098 129.122 915.145 132.389C915.098 134.993 916.127 137.195 918.234 138.994C920.341 140.794 923.928 142.238 928.994 143.327L948.739 147.304C969.714 151.613 980.225 161.461 980.273 176.849C980.273 183.999 978.178 190.273 973.987 195.67C969.797 201.068 964.056 205.27 956.764 208.277C949.473 211.284 941.116 212.787 931.693 212.787C917.252 212.787 905.746 209.768 897.176 203.732C888.606 197.695 883.611 189.468 882.19 179.051L911.949 177.489C912.896 181.939 915.086 185.301 918.518 187.574C921.951 189.847 926.366 190.983 931.764 190.983C937.067 190.983 941.34 189.941 944.584 187.858C947.827 185.775 949.473 183.123 949.52 179.903C949.378 174.506 944.714 170.884 935.528 169.037L916.636 165.273C895.519 161.059 885.008 150.666 885.102 134.094C885.055 123.582 889.257 115.296 897.709 109.236C906.161 103.175 917.37 100.145 931.338 100.145C945.117 100.145 955.971 103.057 963.902 108.881C971.833 114.705 976.461 122.635 977.787 132.673L977.787 132.673ZM1057.4 101.565L1057.4 124.293L1036.88 124.293L1036.88 177.134C1036.88 181.3 1037.82 184.117 1039.72 185.585C1041.61 187.053 1044.07 187.787 1047.11 187.787C1048.53 187.787 1049.95 187.657 1051.37 187.396C1052.79 187.136 1053.88 186.935 1054.63 186.793L1059.39 209.307C1057.88 209.78 1055.75 210.337 1053 210.976C1050.25 211.615 1046.92 212.006 1042.99 212.148C1032 212.621 1023.18 210.242 1016.53 205.01C1009.88 199.778 1006.57 191.812 1006.62 181.111L1006.62 124.293L991.707 124.293L991.707 101.565L1006.62 101.565L1006.62 75.429L1036.88 75.429L1036.88 101.565L1057.4 101.565ZM1174.09 112.219C1172.15 105.401 1168.57 100.062 1163.33 96.2031C1158.1 92.3442 1151.53 90.4148 1143.63 90.4148C1132.5 90.4148 1123.49 94.5223 1116.6 102.737C1109.71 110.952 1106.27 122.635 1106.27 137.787C1106.27 152.986 1109.65 164.728 1116.42 173.014C1123.19 181.3 1132.36 185.443 1143.91 185.443C1154.14 185.443 1162.17 182.78 1168.02 177.453C1173.87 172.126 1176.89 164.965 1177.08 155.969L1145.83 155.969L1145.83 132.815L1206.69 132.815L1206.69 151.139C1206.69 163.876 1203.99 174.849 1198.6 184.058C1193.2 193.268 1185.78 200.334 1176.33 205.259C1166.88 210.183 1156.03 212.645 1143.77 212.645C1130.13 212.645 1118.15 209.626 1107.83 203.59C1097.51 197.553 1089.47 188.959 1083.72 177.808C1077.96 166.658 1075.09 153.412 1075.09 138.071C1075.09 122.351 1078.09 108.904 1084.11 97.7301C1090.12 86.5559 1098.27 78.0095 1108.54 72.0909C1118.81 66.1724 1130.34 63.2131 1143.13 63.2131C1154.11 63.2131 1164.06 65.2964 1172.96 69.4631C1181.86 73.6297 1189.15 79.3944 1194.83 86.7571C1200.51 94.1198 1204.02 102.607 1205.34 112.219L1174.09 112.219ZM1260.32 212.716C1249.9 212.716 1241.26 209.993 1234.39 204.548C1227.53 199.103 1224.09 190.983 1224.09 180.188C1224.09 172.044 1226.01 165.652 1229.85 161.011C1233.68 156.371 1238.71 152.974 1244.94 150.82C1251.17 148.665 1257.88 147.257 1265.07 146.594C1274.54 145.647 1281.31 144.652 1285.39 143.611C1289.46 142.569 1291.49 140.296 1291.49 136.793L1291.49 136.366C1291.49 131.868 1290.09 128.388 1287.27 125.926C1284.45 123.464 1280.46 122.233 1275.3 122.233C1269.86 122.233 1265.52 123.417 1262.3 125.784C1259.08 128.152 1256.95 131.158 1255.91 134.804L1227.93 132.531C1230.01 122.588 1235.19 114.705 1243.45 108.881C1251.71 103.057 1262.38 100.145 1275.44 100.145C1283.54 100.145 1291.12 101.423 1298.17 103.98C1305.23 106.537 1310.92 110.526 1315.25 115.947C1319.58 121.369 1321.75 128.412 1321.75 137.077L1321.75 210.656L1293.06 210.656L1293.06 195.528L1292.2 195.528C1289.55 200.595 1285.59 204.726 1280.31 207.922C1275.03 211.118 1268.36 212.716 1260.32 212.716L1260.32 212.716ZM1268.98 191.835C1275.61 191.835 1281.05 189.906 1285.32 186.047C1289.58 182.188 1291.71 177.394 1291.71 171.665L1291.71 160.088C1290.52 160.893 1288.69 161.603 1286.2 162.219C1283.72 162.834 1281.07 163.367 1278.25 163.817C1275.43 164.267 1272.91 164.657 1270.68 164.989C1265.38 165.746 1261.11 167.238 1257.86 169.463C1254.62 171.688 1253 174.932 1253 179.193C1253 183.36 1254.5 186.509 1257.51 188.639C1260.52 190.77 1264.34 191.835 1268.98 191.835L1268.98 191.835ZM1403.28 101.565L1403.28 124.293L1382.76 124.293L1382.76 177.134C1382.76 181.3 1383.71 184.117 1385.6 185.585C1387.49 187.053 1389.96 187.787 1392.99 187.787C1394.41 187.787 1395.83 187.657 1397.25 187.396C1398.67 187.136 1399.76 186.935 1400.51 186.793L1405.27 209.307C1403.76 209.78 1401.63 210.337 1398.88 210.976C1396.13 211.615 1392.8 212.006 1388.87 212.148C1377.88 212.621 1369.06 210.242 1362.41 205.01C1355.76 199.778 1352.46 191.812 1352.5 181.111L1352.5 124.293L1337.59 124.293L1337.59 101.565L1352.5 101.565L1352.5 75.429L1382.76 75.429L1382.76 101.565L1403.28 101.565ZM1471.54 212.787C1460.36 212.787 1450.73 210.502 1442.63 205.933C1434.53 201.364 1428.31 194.877 1423.95 186.473C1419.6 178.069 1417.42 168.114 1417.42 156.608C1417.42 145.386 1419.6 135.538 1423.95 127.063C1428.31 118.587 1434.45 111.982 1442.38 107.247C1450.31 102.512 1459.63 100.145 1470.33 100.145C1479.94 100.145 1488.62 102.181 1496.36 106.253C1504.1 110.325 1510.24 116.468 1514.79 124.683C1519.34 132.898 1521.61 143.185 1521.61 155.543L1521.61 163.852L1447.32 163.852L1447.32 163.923C1447.32 172.067 1449.54 178.483 1453.99 183.17C1458.45 187.858 1464.46 190.202 1472.03 190.202C1477.1 190.202 1481.48 189.136 1485.17 187.006C1488.87 184.875 1491.47 181.726 1492.99 177.56L1520.97 179.406C1518.84 189.539 1513.44 197.635 1504.78 203.696C1496.11 209.757 1485.03 212.787 1471.54 212.787L1471.54 212.787ZM1447.32 145.102L1493.13 145.102C1493.08 138.616 1491 133.265 1486.88 129.051C1482.76 124.837 1477.41 122.73 1470.83 122.73C1464.1 122.73 1458.59 124.908 1454.28 129.264C1449.97 133.62 1447.65 138.9 1447.32 145.102L1447.32 145.102Z" id="Path" fill="#0E2954" fill-rule="evenodd" stroke="none" />
  </g>
</svg>