<svg id="svg" version="1.1" xmlns="http://www.w3.org/2000/svg" xmlns:xlink="http://www.w3.org/1999/xlink" width="400" height="321.48437500000006" viewBox="0, 0, 400,321.48437500000006"><g id="svgg"><path id="path0" d="M106.592 95.844 C 88.257 96.787,68.856 102.987,52.966 112.981 C 51.060 114.180,49.326 115.102,49.114 115.032 C 48.699 114.893,48.668 114.913,46.903 116.388 C 46.261 116.924,45.580 117.363,45.392 117.363 C 45.203 117.363,44.932 117.544,44.791 117.765 C 44.649 117.986,43.593 118.889,42.444 119.772 C 37.718 123.400,29.286 131.447,29.268 132.346 C 29.264 132.540,28.985 132.830,28.649 132.989 C 28.061 133.269,24.469 137.377,23.473 138.909 C 23.207 139.317,22.622 140.099,22.172 140.646 C 21.722 141.192,21.085 142.074,20.755 142.605 C 20.426 143.135,19.962 143.685,19.724 143.826 C 19.487 143.968,19.293 144.224,19.293 144.397 C 19.293 144.707,17.639 147.320,16.460 148.875 C 16.124 149.317,15.533 150.330,15.147 151.125 C 14.760 151.921,14.024 153.296,13.511 154.180 C 12.998 155.064,12.336 156.294,12.041 156.913 C 11.746 157.532,11.101 158.834,10.609 159.807 C 10.117 160.780,9.615 162.046,9.494 162.621 C 9.373 163.195,9.156 163.666,9.013 163.666 C 8.700 163.666,7.717 166.029,7.717 166.782 C 7.717 167.074,7.520 167.541,7.279 167.820 C 6.730 168.457,5.788 171.251,5.788 172.244 C 5.788 172.654,5.665 172.990,5.516 172.990 C 5.190 172.990,3.859 177.436,3.859 178.525 C 3.859 178.947,3.723 179.430,3.557 179.598 C 3.137 180.024,1.750 186.338,0.924 191.585 C 0.065 197.041,-0.298 213.840,0.312 219.908 C 1.035 227.092,2.408 234.629,3.511 237.460 C 3.648 237.814,4.073 239.397,4.455 240.979 C 4.836 242.561,5.270 243.935,5.418 244.034 C 5.567 244.132,5.778 244.779,5.887 245.472 C 5.997 246.164,6.431 247.466,6.853 248.365 C 7.275 249.264,7.816 250.634,8.056 251.409 C 8.295 252.184,8.660 252.987,8.866 253.193 C 9.071 253.398,9.340 253.922,9.462 254.356 C 9.834 255.678,10.695 257.556,10.930 257.556 C 11.052 257.556,11.334 258.171,11.555 258.923 C 11.777 259.674,12.210 260.579,12.517 260.932 C 12.825 261.286,13.329 262.263,13.639 263.103 C 13.948 263.943,14.330 264.630,14.487 264.630 C 14.644 264.630,15.084 265.354,15.465 266.238 C 15.845 267.122,16.261 267.846,16.389 267.846 C 16.518 267.846,16.884 268.424,17.203 269.132 C 17.522 269.839,17.879 270.418,17.996 270.418 C 18.113 270.418,18.551 271.033,18.968 271.785 C 19.386 272.536,19.825 273.223,19.944 273.312 C 20.063 273.400,20.543 274.051,21.010 274.759 C 22.770 277.425,27.332 283.014,29.571 285.247 C 30.390 286.063,31.310 287.112,31.615 287.578 C 31.920 288.044,32.383 288.424,32.644 288.424 C 32.905 288.424,33.119 288.648,33.119 288.922 C 33.119 289.195,33.553 289.665,34.084 289.967 C 34.615 290.268,35.132 290.768,35.231 291.077 C 35.331 291.387,35.528 291.640,35.669 291.640 C 35.810 291.640,36.270 291.984,36.692 292.404 C 37.870 293.576,44.082 298.714,44.323 298.714 C 44.440 298.714,55.872 287.376,69.728 273.520 C 94.957 248.289,95.558 247.636,94.212 246.917 C 91.910 245.687,88.788 243.836,88.264 243.392 C 87.910 243.092,87.459 242.793,87.261 242.726 C 86.541 242.483,82.199 238.368,80.347 236.174 C 79.302 234.936,78.252 233.706,78.014 233.441 C 77.776 233.175,77.395 232.596,77.167 232.154 C 76.939 231.712,76.663 231.278,76.553 231.190 C 76.182 230.890,72.990 224.384,72.990 223.927 C 72.990 223.677,72.874 223.473,72.731 223.473 C 72.588 223.473,72.209 222.460,71.887 221.222 C 71.566 219.984,71.204 218.971,71.082 218.971 C 69.836 218.971,69.802 198.759,71.047 197.749 C 71.156 197.661,71.650 196.359,72.145 194.855 C 72.988 192.295,75.507 186.873,76.305 185.898 C 76.502 185.658,76.813 185.192,76.997 184.863 C 77.675 183.646,79.255 181.487,80.050 180.692 C 80.500 180.242,81.465 179.229,82.194 178.442 C 83.538 176.991,85.136 175.544,86.532 174.515 C 86.954 174.204,87.754 173.589,88.310 173.148 C 88.866 172.708,89.434 172.347,89.571 172.347 C 89.708 172.347,90.049 172.145,90.328 171.898 C 91.164 171.159,95.655 168.916,97.488 168.322 C 98.427 168.018,99.630 167.584,100.161 167.359 C 103.705 165.854,114.160 165.148,119.293 166.068 C 120.973 166.369,122.926 166.696,123.633 166.796 C 124.341 166.896,124.992 167.079,125.080 167.203 C 125.169 167.327,126.228 167.755,127.434 168.153 C 134.112 170.359,144.187 177.718,146.494 182.074 C 146.751 182.560,147.103 182.958,147.275 182.958 C 147.447 182.958,147.588 183.104,147.588 183.283 C 147.588 183.462,148.106 184.345,148.739 185.245 C 149.372 186.145,150.391 187.880,151.003 189.100 C 152.322 191.729,152.454 191.756,154.391 189.786 C 155.214 188.949,156.155 188.021,156.481 187.724 C 156.807 187.427,157.237 186.992,157.436 186.759 C 157.636 186.525,158.070 186.093,158.401 185.797 C 158.732 185.502,159.617 184.634,160.366 183.868 C 161.116 183.102,161.912 182.313,162.135 182.113 C 162.358 181.914,162.783 181.480,163.080 181.149 C 163.377 180.818,163.811 180.384,164.045 180.184 C 164.278 179.985,164.712 179.551,165.010 179.219 C 165.307 178.888,165.741 178.447,165.974 178.238 C 166.208 178.030,169.754 174.485,173.854 170.361 C 177.955 166.236,181.572 162.619,181.893 162.322 C 182.214 162.025,182.639 161.591,182.838 161.357 C 183.038 161.124,183.472 160.687,183.803 160.386 C 184.134 160.085,184.572 159.673,184.775 159.470 C 184.978 159.266,185.412 158.835,185.740 158.512 C 186.067 158.188,186.508 157.733,186.721 157.499 C 186.934 157.265,187.295 156.911,187.525 156.711 C 187.754 156.512,188.185 156.078,188.482 155.747 C 188.779 155.416,189.213 154.982,189.447 154.782 C 189.680 154.583,190.114 154.149,190.411 153.818 C 190.708 153.486,191.143 153.044,191.376 152.833 C 196.568 148.161,203.614 140.461,203.298 139.804 C 202.031 137.167,189.240 123.751,185.429 121.061 C 185.179 120.884,183.833 119.843,182.439 118.747 C 178.402 115.574,178.210 115.434,177.893 115.434 C 177.727 115.434,177.316 115.129,176.979 114.757 C 176.642 114.384,175.804 113.792,175.115 113.441 C 174.427 113.090,173.704 112.660,173.508 112.486 C 172.991 112.028,170.836 110.765,168.904 109.788 C 167.983 109.322,167.061 108.738,166.855 108.490 C 166.649 108.242,166.318 108.039,166.118 108.039 C 165.919 108.039,164.743 107.544,163.505 106.940 C 159.370 104.920,156.998 103.859,156.621 103.859 C 156.416 103.859,155.927 103.654,155.535 103.403 C 153.235 101.932,140.262 98.117,136.334 97.758 C 134.831 97.620,131.648 97.207,129.260 96.840 C 125.815 96.311,112.464 95.333,111.609 95.547 C 111.502 95.574,109.244 95.707,106.592 95.844 " stroke="none" fill="#fbbb04" fill-rule="evenodd"></path><path id="path1" d="M95.351 247.669 C 95.437 247.893,84.249 259.323,70.017 273.551 L 44.529 299.031 46.621 300.553 C 47.772 301.391,49.076 302.270,49.518 302.506 C 49.960 302.743,50.620 303.216,50.985 303.558 C 51.350 303.900,51.801 304.180,51.986 304.180 C 52.172 304.180,52.869 304.614,53.537 305.145 C 54.205 305.675,54.889 306.109,55.059 306.109 C 55.228 306.109,55.754 306.385,56.226 306.721 C 57.325 307.504,61.996 309.968,62.380 309.968 C 62.541 309.968,63.172 310.307,63.784 310.722 C 64.395 311.137,65.559 311.662,66.370 311.889 C 67.182 312.116,67.846 312.422,67.846 312.569 C 67.846 312.716,68.775 313.123,69.911 313.474 C 71.047 313.825,72.241 314.261,72.564 314.443 C 73.680 315.074,75.644 315.756,76.342 315.756 C 76.727 315.756,77.179 315.888,77.347 316.050 C 77.858 316.541,81.708 317.685,82.851 317.685 C 83.440 317.685,83.923 317.807,83.923 317.955 C 83.923 318.104,84.755 318.402,85.772 318.617 C 86.789 318.832,88.344 319.208,89.228 319.453 C 90.113 319.697,92.862 320.231,95.338 320.640 L 99.839 321.383 149.920 321.471 L 200.000 321.559 200.000 286.503 L 200.000 251.447 155.151 251.447 C 116.104 251.447,109.958 251.383,107.643 250.951 C 104.111 250.292,99.557 249.157,99.357 248.884 C 99.268 248.764,98.505 248.476,97.661 248.244 C 96.816 248.012,96.048 247.697,95.953 247.544 C 95.687 247.113,95.178 247.218,95.351 247.669 " stroke="none" fill="#33ac54" fill-rule="evenodd"></path><path id="path2" d="M182.154 0.482 C 180.209 0.706,177.605 1.056,176.367 1.260 C 175.129 1.464,173.682 1.686,173.151 1.754 C 170.786 2.056,165.084 3.290,164.807 3.560 C 164.639 3.724,164.157 3.859,163.735 3.859 C 162.685 3.859,157.789 5.122,157.412 5.490 C 157.244 5.654,156.737 5.792,156.286 5.796 C 155.835 5.801,154.453 6.167,153.215 6.610 C 151.977 7.053,150.097 7.635,149.037 7.903 C 147.977 8.170,146.819 8.577,146.465 8.806 C 146.110 9.035,144.778 9.537,143.505 9.921 C 142.232 10.305,141.108 10.753,141.007 10.916 C 140.906 11.079,140.031 11.442,139.062 11.724 C 138.092 12.006,137.299 12.354,137.299 12.498 C 137.299 12.642,136.416 13.027,135.336 13.354 C 134.257 13.681,133.307 14.121,133.226 14.332 C 133.145 14.543,132.292 14.963,131.331 15.265 C 130.369 15.568,129.582 15.925,129.582 16.058 C 129.582 16.192,128.967 16.555,128.215 16.865 C 127.464 17.175,126.632 17.562,126.367 17.724 C 126.101 17.887,125.233 18.342,124.437 18.737 C 123.641 19.131,122.539 19.775,121.987 20.169 C 121.436 20.562,120.640 21.032,120.219 21.213 C 119.475 21.532,114.331 24.767,113.645 25.347 C 113.457 25.506,112.951 25.822,112.520 26.050 C 112.089 26.277,111.664 26.550,111.576 26.657 C 111.487 26.763,110.764 27.284,109.968 27.814 C 109.172 28.344,108.326 28.962,108.089 29.188 C 107.851 29.413,107.236 29.814,106.722 30.080 C 106.208 30.346,105.788 30.704,105.788 30.876 C 105.788 31.049,105.583 31.190,105.332 31.190 C 105.082 31.190,104.829 31.301,104.770 31.436 C 104.711 31.572,103.939 32.259,103.055 32.964 C 102.170 33.668,101.331 34.425,101.190 34.646 C 101.048 34.867,100.733 35.048,100.490 35.048 C 100.246 35.048,99.783 35.383,99.461 35.792 C 99.138 36.201,98.622 36.677,98.313 36.849 C 96.630 37.789,82.315 51.828,82.315 52.539 C 82.315 52.663,81.793 53.300,81.155 53.955 C 80.517 54.609,79.128 56.230,78.069 57.556 C 77.010 58.883,75.868 60.295,75.531 60.694 C 75.195 61.093,74.920 61.491,74.920 61.578 C 74.920 61.665,74.700 61.990,74.432 62.299 C 73.031 63.914,72.026 65.223,72.026 65.430 C 72.026 65.558,71.592 66.211,71.061 66.881 C 70.531 67.551,70.095 68.223,70.092 68.374 C 70.090 68.526,69.796 69.011,69.439 69.453 C 69.082 69.895,68.077 71.415,67.206 72.830 C 66.334 74.244,65.506 75.547,65.367 75.723 C 65.227 75.900,64.902 76.479,64.645 77.010 C 64.388 77.540,63.944 78.264,63.659 78.617 C 63.375 78.971,62.866 79.912,62.528 80.707 C 62.191 81.503,61.823 82.227,61.710 82.315 C 61.357 82.591,60.450 84.512,60.450 84.982 C 60.450 85.229,60.183 85.672,59.857 85.968 C 59.531 86.263,59.071 87.117,58.835 87.866 C 58.600 88.615,58.246 89.445,58.049 89.711 C 57.438 90.535,56.592 92.596,56.592 93.258 C 56.592 93.606,56.455 93.891,56.287 93.891 C 55.976 93.891,54.448 97.716,54.586 98.151 C 54.628 98.284,54.546 98.392,54.404 98.392 C 54.262 98.392,53.888 99.152,53.573 100.080 C 53.258 101.009,52.883 102.058,52.739 102.412 C 52.595 102.765,52.165 103.995,51.782 105.145 C 51.400 106.294,50.966 107.524,50.819 107.878 C 50.393 108.904,49.518 111.932,49.518 112.380 C 49.518 112.604,49.308 113.192,49.052 113.686 C 47.992 115.729,48.847 115.571,53.004 112.957 C 75.398 98.873,103.372 92.941,129.100 96.823 C 134.963 97.707,137.299 97.905,137.299 97.516 C 137.299 97.138,140.021 94.368,142.756 91.961 C 143.862 90.989,145.118 89.868,145.548 89.471 C 145.977 89.074,146.752 88.530,147.271 88.262 C 147.789 87.994,148.358 87.502,148.537 87.169 C 148.715 86.835,149.298 86.410,149.832 86.224 C 150.367 86.038,150.804 85.756,150.804 85.598 C 150.804 85.440,151.455 84.975,152.251 84.566 C 153.047 84.157,153.698 83.717,153.698 83.590 C 153.698 83.462,154.168 83.172,154.743 82.946 C 155.318 82.719,156.231 82.208,156.773 81.811 C 157.315 81.413,158.255 80.865,158.863 80.594 C 159.471 80.322,160.330 79.885,160.772 79.623 C 162.333 78.697,166.411 76.849,166.893 76.849 C 167.161 76.849,167.666 76.658,168.015 76.426 C 168.924 75.820,172.346 74.576,172.352 74.850 C 172.355 74.977,172.463 74.933,172.593 74.753 C 172.838 74.415,174.540 73.858,177.331 73.204 C 178.215 72.997,179.087 72.731,179.268 72.613 C 182.398 70.578,199.386 69.670,211.415 70.893 C 212.979 71.053,217.032 71.813,218.650 72.251 C 219.622 72.514,221.069 72.862,221.865 73.024 C 223.173 73.290,225.765 74.038,227.010 74.509 C 229.135 75.313,231.618 76.244,232.999 76.756 C 233.906 77.092,234.991 77.585,235.411 77.851 C 235.830 78.118,236.680 78.533,237.299 78.774 C 237.918 79.015,238.786 79.456,239.228 79.755 C 239.670 80.054,240.683 80.608,241.479 80.986 C 243.446 81.921,247.586 84.533,250.608 86.744 C 251.158 87.146,252.078 87.776,252.653 88.143 C 253.227 88.509,253.698 88.940,253.698 89.099 C 253.698 89.259,253.915 89.389,254.180 89.389 C 254.445 89.389,254.662 89.208,254.662 88.986 C 254.662 88.765,265.793 77.454,279.396 63.852 L 304.130 39.119 303.119 38.048 C 302.564 37.459,301.960 36.976,301.778 36.975 C 301.596 36.973,301.105 36.539,300.687 36.010 C 300.269 35.481,299.783 35.048,299.607 35.048 C 299.431 35.048,298.977 34.767,298.598 34.423 C 296.598 32.608,292.213 29.260,291.836 29.260 C 291.713 29.260,291.293 28.957,290.903 28.586 C 290.512 28.215,289.397 27.400,288.424 26.775 C 287.452 26.149,286.584 25.533,286.495 25.404 C 286.407 25.275,285.878 24.936,285.320 24.650 C 284.762 24.365,284.111 23.941,283.873 23.709 C 283.635 23.477,282.905 23.036,282.250 22.729 C 281.595 22.422,280.865 21.993,280.627 21.777 C 280.196 21.383,279.527 20.994,276.206 19.207 C 275.233 18.683,274.220 18.080,273.955 17.866 C 273.690 17.653,272.842 17.279,272.072 17.036 C 271.302 16.793,270.604 16.419,270.522 16.205 C 270.439 15.990,269.623 15.571,268.707 15.274 C 267.791 14.976,266.825 14.547,266.559 14.320 C 266.294 14.093,265.498 13.724,264.791 13.499 C 264.084 13.274,263.165 12.825,262.749 12.502 C 262.333 12.179,261.465 11.820,260.819 11.704 C 260.174 11.589,259.429 11.308,259.164 11.080 C 258.627 10.619,254.959 9.325,254.190 9.325 C 253.919 9.325,253.698 9.209,253.698 9.067 C 253.698 8.734,250.858 7.713,249.939 7.715 C 249.551 7.716,249.153 7.587,249.055 7.427 C 248.823 7.051,244.667 5.788,243.664 5.788 C 243.240 5.788,242.756 5.654,242.588 5.490 C 242.195 5.106,237.294 3.859,236.179 3.859 C 235.711 3.859,235.069 3.720,234.754 3.552 C 229.630 0.809,196.243 -1.139,182.154 0.482 " stroke="none" fill="#eb4434" fill-rule="evenodd"></path><path id="path3" d="M279.508 63.746 C 254.440 88.822,253.945 89.366,255.466 90.173 C 255.820 90.361,256.471 90.850,256.913 91.261 C 259.570 93.728,263.102 97.281,264.630 99.022 C 265.603 100.130,266.689 101.353,267.043 101.740 C 267.397 102.126,267.944 102.797,268.258 103.231 C 268.572 103.665,269.263 104.598,269.794 105.305 C 271.170 107.137,273.313 110.426,274.719 112.862 C 275.383 114.011,276.055 115.169,276.212 115.434 C 277.320 117.306,279.961 123.089,280.748 125.367 C 281.077 126.320,281.471 127.261,281.623 127.457 C 281.775 127.653,282.148 128.826,282.452 130.064 C 282.756 131.302,283.191 132.749,283.418 133.280 C 285.015 137.013,286.427 149.011,286.469 159.197 L 286.495 165.500 289.630 165.707 C 293.146 165.940,299.180 166.814,300.161 167.233 C 300.514 167.384,301.672 167.812,302.733 168.184 C 304.448 168.785,308.699 170.788,310.450 171.820 C 312.194 172.849,313.719 173.920,314.112 174.394 C 314.352 174.683,314.673 174.920,314.825 174.920 C 314.976 174.920,315.594 175.390,316.198 175.965 C 316.801 176.539,317.563 177.234,317.892 177.509 C 318.961 178.403,324.437 184.957,324.437 185.342 C 324.437 185.439,324.944 186.310,325.563 187.277 C 326.182 188.245,326.689 189.152,326.689 189.293 C 326.690 189.434,327.033 190.224,327.451 191.049 C 327.870 191.873,328.306 192.922,328.421 193.380 C 328.536 193.838,328.772 194.212,328.945 194.212 C 329.119 194.212,329.260 194.528,329.260 194.914 C 329.260 195.781,330.477 200.600,330.888 201.362 C 331.286 202.098,331.279 214.959,330.881 215.680 C 330.537 216.303,329.260 221.535,329.260 222.324 C 329.260 222.602,329.145 222.830,329.004 222.830 C 328.862 222.830,328.552 223.372,328.314 224.035 C 327.606 226.007,325.209 230.788,324.727 231.190 C 324.620 231.278,324.356 231.687,324.139 232.099 C 323.698 232.936,323.636 233.017,321.008 236.182 C 319.976 237.424,318.568 238.943,317.878 239.558 C 317.189 240.172,316.248 241.040,315.788 241.485 C 315.030 242.219,313.970 243.015,312.584 243.891 C 309.145 246.065,308.169 246.624,307.814 246.624 C 307.584 246.624,307.395 246.752,307.395 246.908 C 307.395 247.064,307.142 247.268,306.833 247.360 C 306.523 247.453,304.823 248.057,303.055 248.704 C 301.286 249.350,298.465 250.195,296.785 250.581 L 293.730 251.283 246.865 251.372 L 200.000 251.461 200.000 286.511 L 200.000 321.561 250.080 321.455 L 300.161 321.350 305.145 320.503 C 311.456 319.431,315.886 318.413,316.024 318.003 C 316.083 317.828,316.585 317.685,317.140 317.685 C 318.293 317.685,322.614 316.404,322.776 316.014 C 322.835 315.872,323.197 315.754,323.580 315.751 C 324.355 315.746,326.703 314.979,327.961 314.320 C 328.411 314.085,329.412 313.703,330.187 313.472 C 330.962 313.241,331.777 312.872,331.997 312.651 C 332.218 312.431,332.814 312.150,333.321 312.027 C 334.144 311.827,337.969 310.051,339.228 309.284 C 339.494 309.122,340.362 308.667,341.158 308.273 C 341.953 307.879,343.061 307.231,343.619 306.833 C 344.177 306.435,344.772 306.109,344.942 306.109 C 345.112 306.109,345.599 305.836,346.024 305.501 C 346.450 305.166,347.238 304.624,347.776 304.295 C 352.542 301.386,359.185 296.366,362.423 293.227 C 362.890 292.774,363.651 292.156,364.112 291.853 C 364.574 291.551,364.952 291.124,364.952 290.905 C 364.952 290.686,365.277 290.363,365.675 290.189 C 366.073 290.014,366.531 289.570,366.693 289.201 C 366.855 288.833,367.289 288.399,367.658 288.237 C 368.026 288.075,368.471 287.617,368.645 287.219 C 368.820 286.821,369.142 286.495,369.361 286.495 C 369.581 286.495,370.002 286.126,370.297 285.676 C 370.592 285.225,371.500 284.168,372.314 283.328 C 373.128 282.488,374.156 281.314,374.598 280.720 C 375.040 280.126,376.087 278.779,376.925 277.726 C 377.763 276.674,378.752 275.322,379.122 274.723 C 379.492 274.124,379.928 273.633,380.091 273.633 C 380.253 273.633,380.386 273.470,380.386 273.270 C 380.386 273.070,380.892 272.201,381.511 271.340 C 382.130 270.478,382.637 269.656,382.637 269.513 C 382.637 269.370,382.897 268.973,383.214 268.630 C 383.757 268.044,384.937 266.036,386.698 262.701 C 387.118 261.905,387.593 261.037,387.754 260.772 C 388.283 259.900,390.288 255.483,390.527 254.662 C 390.656 254.220,390.851 253.786,390.960 253.698 C 391.253 253.460,392.283 251.160,392.283 250.745 C 392.283 250.547,392.650 249.636,393.098 248.719 C 393.547 247.802,394.003 246.486,394.113 245.793 C 394.222 245.100,394.407 244.461,394.523 244.373 C 394.899 244.086,396.141 239.721,396.141 238.683 C 396.141 238.128,396.285 237.626,396.460 237.567 C 397.085 237.356,398.948 227.638,399.685 220.740 C 400.380 214.228,399.936 196.340,398.930 190.354 C 397.944 184.487,396.872 179.706,396.445 179.277 C 396.278 179.109,396.141 178.618,396.141 178.186 C 396.141 177.130,394.915 173.065,394.524 172.824 C 394.353 172.718,394.212 172.314,394.212 171.926 C 394.212 171.262,393.273 168.498,392.632 167.277 C 392.471 166.971,392.098 166.033,391.803 165.193 C 391.507 164.353,391.149 163.666,391.006 163.666 C 390.863 163.666,390.646 163.130,390.523 162.475 C 390.278 161.168,389.265 159.003,388.751 158.685 C 388.571 158.574,388.424 158.230,388.424 157.922 C 388.424 157.613,387.990 156.676,387.460 155.840 C 386.929 155.003,386.491 154.143,386.486 153.928 C 386.481 153.713,386.047 152.969,385.522 152.274 C 384.996 151.579,384.566 150.879,384.566 150.719 C 384.566 150.558,384.155 149.824,383.653 149.088 C 383.151 148.352,382.333 147.098,381.834 146.302 C 380.862 144.750,379.772 143.126,379.351 142.605 C 379.209 142.428,378.665 141.704,378.142 140.997 C 377.620 140.289,376.977 139.421,376.714 139.068 C 372.783 133.786,365.567 126.295,359.989 121.704 C 359.129 120.997,358.266 120.269,358.071 120.086 C 357.876 119.903,357.211 119.404,356.592 118.977 C 355.973 118.549,355.351 118.011,355.209 117.781 C 355.068 117.551,354.797 117.363,354.608 117.363 C 354.420 117.363,353.771 116.929,353.166 116.399 C 352.562 115.868,351.928 115.434,351.757 115.434 C 351.587 115.434,351.447 115.203,351.447 114.920 C 351.447 114.637,351.245 113.950,350.999 113.393 C 350.389 112.015,349.518 109.158,349.518 108.537 C 349.518 108.258,349.386 107.779,349.225 107.472 C 348.680 106.432,347.588 103.454,347.588 103.007 C 347.588 102.763,347.450 102.312,347.281 102.005 C 347.113 101.698,346.314 99.783,345.507 97.749 C 344.699 95.715,343.897 94.003,343.724 93.944 C 343.550 93.885,343.408 93.579,343.408 93.264 C 343.408 92.518,342.108 89.389,341.798 89.389 C 341.667 89.389,341.480 88.991,341.383 88.505 C 341.285 88.018,340.833 87.072,340.378 86.401 C 339.922 85.729,339.550 85.035,339.550 84.857 C 339.550 84.463,338.582 82.538,338.272 82.315 C 338.149 82.227,337.666 81.359,337.199 80.386 C 336.289 78.488,336.041 78.060,334.658 75.992 C 334.165 75.256,333.762 74.551,333.762 74.425 C 333.762 74.300,333.179 73.310,332.467 72.227 C 331.755 71.144,331.034 70.040,330.865 69.775 C 329.636 67.844,327.594 64.884,327.316 64.630 C 327.219 64.542,326.789 63.963,326.360 63.344 C 325.385 61.937,325.639 62.267,322.151 57.878 C 320.535 55.844,318.871 53.818,318.453 53.376 C 318.034 52.934,316.424 51.213,314.875 49.551 C 311.634 46.076,312.005 46.453,307.802 42.363 C 306.029 40.639,304.453 39.228,304.298 39.228 C 304.144 39.228,292.988 50.261,279.508 63.746 " stroke="none" fill="#4384f3" fill-rule="evenodd"></path><path id="path4" d="M94.855 247.765 C 94.855 248.165,85.775 257.500,69.695 273.633 L 44.534 298.875 70.089 273.400 C 90.249 253.302,95.560 247.843,95.249 247.532 C 94.938 247.221,94.855 247.270,94.855 247.765 " stroke="none" fill="#74ae35" fill-rule="evenodd"></path></g></svg>